<?xml version="1.0" encoding="utf-8"?>
<!-- Svg Vector Icons : http://www.onlinewebfonts.com/icon -->
<!DOCTYPE svg PUBLIC "-//W3C//DTD SVG 1.1//EN" "http://www.w3.org/Graphics/SVG/1.1/DTD/svg11.dtd">
<svg version="1.1" xmlns="http://www.w3.org/2000/svg" xmlns:xlink="http://www.w3.org/1999/xlink" x="0px" y="0px" viewBox="0 0 256 256" enable-background="new 0 0 256 256" xml:space="preserve">
<metadata> Svg Vector Icons : http://www.onlinewebfonts.com/icon </metadata>
<g><g><path fill="#000000" d="M203.5,44.9c-1.3-9.2-9.1-16.3-18.5-16.3s-17.2,7.1-18.5,16.3h-21.3c-1.4-6.1-6.8-10.9-13.1-10.9H127c-6.4,0-11.8,4.6-13,10.9H86.9c-1.3-9.2-9.1-16.3-18.5-16.3c-10.3,0-18.7,8.5-18.7,18.9c0,1.1,0.1,2.1,0.3,3.1v21.2h63.8V96h31.9V71.9h58.1v-27H203.5L203.5,44.9z"/><path fill="#000000" d="M246,125.5c-17.1,0-32.1,8.6-40.4,21.5h-30.2c-3.6-6.3-8.4-11.7-14.2-16.1v-21.5H97.7V131c-5.7,4.4-10.5,9.8-14.1,16.1H48.3c-8-12.9-22.2-21.5-38.3-21.5c1,0.5-0.3,92.3,0,91.3c11,0,21.1-4,28.9-10.6h48.3c9.7,12.9,25,21.3,42.1,21.3c17.3,0,32.7-8.3,42.4-21.3h45c8.1,6,18.2,9.6,29.2,9.6C246,215,245,126,246,125.5z"/></g></g>
</svg>