<?xml version="1.0" encoding="utf-8"?>
<!-- Svg Vector Icons : http://www.onlinewebfonts.com/icon -->
<!DOCTYPE svg PUBLIC "-//W3C//DTD SVG 1.1//EN" "http://www.w3.org/Graphics/SVG/1.1/DTD/svg11.dtd">
<svg version="1.1" xmlns="http://www.w3.org/2000/svg" xmlns:xlink="http://www.w3.org/1999/xlink" x="0px" y="0px" viewBox="0 0 256 256" enable-background="new 0 0 256 256" xml:space="preserve">
<metadata> Svg Vector Icons : http://www.onlinewebfonts.com/icon </metadata>
<g><g><path fill="#000000" d="M246,105.3c-2.8,4.8-5.9,6.6-9.8,5.6c-4.2-1.1-6-4.1-6-10c0-13.1,0.1-26.3-0.1-39.4c-0.1-4.8,1.4-8.3,5.9-10.3c1.4,0,2.8,0,4.2,0c2.6,1.2,4.5,3.2,5.8,5.8C246,73.1,246,89.2,246,105.3z"/><path fill="#000000" d="M10,150.7c2.8-4.8,5.9-6.6,9.8-5.6c4.2,1.1,6,4.1,6,10c0,13.1-0.1,26.3,0.1,39.4c0.1,4.8-1.4,8.3-5.9,10.3c-1.4,0-2.8,0-4.2,0c-2.6-1.2-4.6-3.2-5.8-5.8C10,182.9,10,166.8,10,150.7z"/><path fill="#000000" d="M58.6,150.7c-1-5.2-2.4-10.1-2.7-15.1c-2.2-28.4,8.4-50.8,31.9-67c11.7-8,24.9-11.6,39-11.7c25.5-0.1,51.1,0,76.6,0c13,0,22.1,9.1,22,22.1c0,3.7,0,7.4-0.8,11c-2.1,9.3-10.2,15.7-19.8,15.9c-3.3,0.1-6.7,0-10.3,0c0.7,2.8,1.4,5.4,1.9,8c6.1,28.6-6.2,58-30.7,74.1c-11.9,7.8-25.1,11.6-39.3,11.7c-24.5,0.1-49,0-73.5,0c-13.5,0-22.5-9-22.4-22.5c0-3.5,0-7.1,0.8-10.4c2.1-9.4,10.3-15.8,20-16C53.8,150.6,56.2,150.7,58.6,150.7z M60.6,128.2c0,36.5,29.6,66.2,66.1,66.2c36.3,0,66-29.5,66.1-65.6c0.1-36.8-29.4-66.5-66-66.6C90.3,62.1,60.6,91.7,60.6,128.2z M154.4,62.2c0.7,0.5,0.8,0.7,0.9,0.7c16.8,7.6,29,19.7,36.6,36.4c0.3,0.6,1.4,1.2,2.2,1.3c3.6,0.1,7.2,0.1,10.8,0c7.1-0.2,13.3-5.1,14.7-12c0.6-3.1,0.5-6.5,0.5-9.7c0-10-6.7-16.7-16.6-16.7c-14.4,0-28.8,0-43.1,0C158.6,62.2,156.7,62.2,154.4,62.2z M98.5,194.4c0-0.1,0.1-0.3,0.1-0.4c-0.6-0.3-1.2-0.6-1.8-0.9c-13.8-6.5-24.6-16.3-32.2-29.6c-1.4-2.5-2.4-6-4.6-7.2c-2.3-1.3-5.8-0.3-8.8-0.3c-7.2,0.1-13.5,5.1-14.9,12.1c-0.6,3.1-0.5,6.3-0.5,9.4c0,10.2,6.6,16.9,16.7,16.9c14.6,0,29.1,0,43.7,0C97,194.4,97.7,194.4,98.5,194.4z"/><path fill="#000000" d="M118.2,128.1c0-5,4.1-9.1,9.1-9.1c5,0,9.1,4.1,9.1,9.1c0,5-4.1,9.1-9.1,9.1C122.3,137.2,118.2,133.2,118.2,128.1L118.2,128.1z M159.2,92.7l-17.8,18.3c-3.2-2.6-7.1-4.4-11.3-4.9V79.1c-30.9,0-38.2,17.2-38.2,17.2l18,17.5c-2.8,3.3-4.6,7.5-5.2,12H78.3c0,30.9,17.2,38.2,17.2,38.2l17.6-18c3.3,2.6,7.4,4.4,11.9,4.8v26.5c30.9,0,38.2-17.2,38.2-17.2l-18.3-17.9c2.5-3.2,4.1-7,4.6-11.3h27C176.4,100,159.2,92.7,159.2,92.7z M127.3,141.8c-7.5,0-13.7-6.1-13.7-13.7c0-7.5,6.1-13.7,13.7-13.7c7.5,0,13.7,6.1,13.7,13.7C141,135.7,134.9,141.8,127.3,141.8z M149.8,135.4h3.2v9.9h-3.2V135.4z M155.7,134.2h3.6v12.4h-3.6V134.2z M162.6,132.6h4.7v15.6h-4.7V132.6z M170.5,132.1h4.8v16.6h-4.8V132.1z M109.9,150.8h9.9v3.2h-9.9V150.8z M108.6,156.7H121v3.6h-12.4V156.7z M107,163.6h15.6v4.7H107V163.6z M106.5,171.5h16.6v4.8h-16.6V171.5z M101.1,110.9h3.2v9.9h-3.2V110.9L101.1,110.9z M94.8,109.7h3.6v12.4h-3.6V109.7L94.8,109.7z M86.9,108.1h4.7v15.6h-4.7V108.1z M78.9,107.6h4.8v16.6h-4.8V107.6z M135.4,103.2h9.9v3.2h-9.9V103.2z M134.1,96.9h12.4v3.6h-12.4V96.9L134.1,96.9z M132.5,88.9h15.6v4.7h-15.6V88.9L132.5,88.9z M132,80.9h16.6v4.8H132V80.9L132,80.9z"/></g></g>
</svg>